<svg xmlns="http://www.w3.org/2000/svg" viewBox="0 0 40 40"><defs><style>.cls-1{fill:#ffc215;}</style></defs><title>icon-money</title><g id="圖層_1" data-name="圖層 1"><path class="cls-1" d="M20,39.17A19.17,19.17,0,1,1,39.17,20,19.19,19.19,0,0,1,20,39.17ZM20,1.83A18.17,18.17,0,1,0,38.17,20,18.19,18.19,0,0,0,20,1.83Z"/><path class="cls-1" d="M20,35.73A15.73,15.73,0,1,1,35.73,20,15.75,15.75,0,0,1,20,35.73ZM20,5.27A14.73,14.73,0,1,0,34.73,20,14.75,14.75,0,0,0,20,5.27Z"/><path class="cls-1" d="M24.11,18.89A12.4,12.4,0,0,0,21,17.44V13.08a1.58,1.58,0,0,1,1,.8,4.08,4.08,0,0,1,.33,1.45h2.94a4.39,4.39,0,0,0-1.95-3.88A5.15,5.15,0,0,0,21,10.62V9.05H18.84V10.6a5.91,5.91,0,0,0-1.12.21A4.31,4.31,0,0,0,16,11.91a4.41,4.41,0,0,0-1,1.46,5,5,0,0,0-.34,1.89,4.23,4.23,0,0,0,.88,2.7,5.76,5.76,0,0,0,3,1.74l.29.09v4.8a1.89,1.89,0,0,1-1.09-.82,5.27,5.27,0,0,1-.44-1.89h-3c0,2.07.6,3.53,1.88,4.39a6.9,6.9,0,0,0,2.67.87v2.31H21V27.14a6.28,6.28,0,0,0,2.51-.85,4.44,4.44,0,0,0,2.07-4.09A4,4,0,0,0,24.11,18.89Zm-5.27-2.17a2.48,2.48,0,0,1-.59-.33,1.78,1.78,0,0,1-.71-1.48A1.87,1.87,0,0,1,18,13.55a1.56,1.56,0,0,1,.82-.44Zm3,7.59a2.29,2.29,0,0,1-.78.32V20.54a3.52,3.52,0,0,1,.83.47,1.92,1.92,0,0,1,.65,1.52A2,2,0,0,1,21.81,24.31Z"/><path class="cls-1" d="M13.3,33.66c-.25-.13-.51-.25-.76-.39l-1.78,1.78-.72.72c.23.15.47.3.72.44l2.45-2.45Z"/><path class="cls-1" d="M33.27,12.54c.14.25.26.51.39.76l.26-.25,2.16-2.16.13-.13c-.14-.25-.29-.49-.44-.72l-2.3,2.3Z"/><path class="cls-1" d="M14.6,35.63l.84-.84.2-.2c-.29-.09-.57-.19-.85-.3l-2.64,2.64.8.35.26-.26Z"/><path class="cls-1" d="M34.59,15.64l1.49-1.49,1.2-1.2c-.11-.27-.23-.53-.35-.8l-2.64,2.64C34.4,15.07,34.5,15.35,34.59,15.64Z"/><path class="cls-1" d="M35.14,18.36l.94-.94.3-.3,1.7-1.7c-.08-.31-.14-.62-.23-.92L35,17.36C35,17.69,35.1,18,35.14,18.36Z"/><path class="cls-1" d="M15.44,38.06l2.92-2.92c-.34,0-.67-.1-1-.16l-.63.63-.83.84-1.4,1.4c.3.09.61.15.92.23l0,0Z"/><path class="cls-1" d="M35.14,21.63l.94-.94,1.27-1.28,1-.95.27-.27c0-.35-.09-.68-.14-1L35.21,20.4C35.2,20.81,35.18,21.22,35.14,21.63Z"/><path class="cls-1" d="M21.63,35.14c-.41,0-.82.06-1.23.07l-.6.6-1.67,1.67-.95,1c.33.05.66.11,1,.14l3.14-3.15Z"/><path class="cls-1" d="M23,37l1.39-1.39.84-.84.83-.83a13.76,13.76,0,0,1-1.8.65l-4,4-.05,0c.41,0,.81,0,1.21-.06l.39-.39Z"/><path class="cls-1" d="M34,26.07,36.08,24l1.39-1.39.84-.83.29-.3c0-.4.06-.8.06-1.21l-4,4.05A13.76,13.76,0,0,1,34,26.07Z"/><path class="cls-1" d="M33.06,30.73l.14-.15,3.12-3.11,1.24-1.24.55-.55c.15-.51.28-1,.4-1.55l-5.73,5.73-1.34,1.33L30.33,32.3l-2.16,2.16-1.39,1.39-.84.84-1.81,1.82c.52-.12,1-.25,1.55-.4l5.1-5.1Z"/><path class="cls-1" d="M7.51,9.56,9.94,7.13,10.09,7l3.12-3.12.3-.29L15.06,2c-.58.16-1.15.35-1.71.56L10.64,5.28,8.33,7.59l-.64.64L5.06,10.86,3.79,12.13l-1,1-.26.26c-.21.56-.4,1.13-.56,1.71l.36-.36Z"/><path class="cls-1" d="M2.37,18.46l3.14-3.15a15.06,15.06,0,0,1,.8-2L5.06,14.62l-.3.29L2.83,16.84,1.42,18.26c0,.4,0,.81-.07,1.21l.06-.06Z"/><path class="cls-1" d="M17.83,1.85,15.9,3.78,13.36,6.31a14.63,14.63,0,0,1,2-.8l.12-.12,4-4c-.4,0-.81,0-1.21.07l-.13.13Z"/><path class="cls-1" d="M18.13,4.81l-.1.1c.41,0,.83-.08,1.26-.1l2.53-2.54.75-.74c-.34-.05-.69-.1-1-.12L19.31,3.63Z"/><path class="cls-1" d="M2.37,21.73l2.44-2.44c0-.43.05-.85.1-1.26L3.82,19.12l-1,1h0L1.41,21.54c0,.34.07.69.12,1h0Z"/><path class="cls-1" d="M22.39,5,23,4.35l.3-.29,1.93-1.93,0,0-.92-.23-3,3C21.71,4.87,22.05,4.92,22.39,5Z"/><path class="cls-1" d="M5,22.39c-.06-.34-.11-.68-.14-1L3.67,22.54l-.84.84-1,1c.07.31.15.62.23.92L2.37,25Z"/><path class="cls-1" d="M24.12,5.35l.88.28.24-.24L27.65,3l-.81-.34L25.7,3.78Z"/><path class="cls-1" d="M5.35,24.12l-.29.3L3.79,25.69l-1,.95-.19.2c.11.27.22.54.34.81L5.63,25C5.53,24.71,5.44,24.42,5.35,24.12Z"/><path class="cls-1" d="M28.58,7.42c.23.16.45.33.66.5l1.29-1.29L31.7,5.46c-.21-.17-.44-.33-.66-.49l-.95,1Z"/><path class="cls-1" d="M7.43,28.58,5.06,31,5,31c.16.22.32.45.49.66l2.46-2.46A8.05,8.05,0,0,1,7.43,28.58Z"/><path class="cls-1" d="M6.24,26.5,5.06,27.68l-.3.3L3.68,29.06c.14.25.29.48.44.72l2.5-2.5C6.48,27,6.37,26.76,6.24,26.5Z"/><path class="cls-1" d="M26.69,6.05l-.19.19c.26.13.52.24.78.38l2.5-2.5c-.24-.15-.47-.3-.72-.44L27.93,4.81Z"/><path class="cls-1" d="M10.09,33.61l1.16-1.16c-.23-.16-.45-.32-.66-.49L8.33,34.22l-.2.19c.21.18.44.33.66.5l1.15-1.15Z"/><path class="cls-1" d="M32,10.59c.17.21.33.43.49.66l.36-.36.64-.64,1.46-1.46c-.17-.22-.32-.45-.5-.66l-.78.79Z"/><path class="cls-1" d="M9.46,31c-.2-.19-.39-.38-.57-.58L8.33,31,7.22,32.06l-.77.76.57.59.65-.64Z"/><path class="cls-1" d="M30.56,8.72l-.17.17c.2.18.39.37.58.57l1.84-1.84L33,7.47,33.41,7l-.59-.57L31.19,8.08Z"/></g></svg>