<svg xmlns="http://www.w3.org/2000/svg" viewBox="0 0 41 41"><defs><style>.cls-1{fill:#ff8278;}</style></defs><title>icon-line</title><g id="圖層_1" data-name="圖層 1"><path class="cls-1" d="M27,34.27H14V11.17H27Zm-12-1H26V12.17H15Z"/><path class="cls-1" d="M15,34.27H2V17.84H15Zm-12-1H14V18.84H3Z"/><path class="cls-1" d="M39,38.64H2V33.27H39Zm-36-1H38V34.27H3Z"/><path class="cls-1" d="M39,34.27H26V2.36H39Zm-12-1H38V3.36H27Z"/><polygon class="cls-1" points="7.57 28.74 2.54 33.77 4.15 33.77 9.2 28.71 14.5 23.41 14.5 21.81 7.57 28.74"/><polygon class="cls-1" points="9.8 33.77 14.5 29.07 14.5 27.47 8.2 33.77 9.8 33.77"/><polygon class="cls-1" points="2.5 18.34 2.5 18.43 2.6 18.34 2.5 18.34"/><polygon class="cls-1" points="9.2 23.06 13.92 18.34 12.31 18.34 7.57 23.08 2.5 28.15 2.5 29.75 3.54 28.71 9.2 23.06"/><polygon class="cls-1" points="8.26 18.34 6.66 18.34 2.5 22.49 2.5 24.09 3.54 23.06 8.26 18.34"/><path class="cls-1" d="M15,34.27H2V17.84H15Zm-12-1H14V18.84H3Z"/><polygon class="cls-1" points="25.35 18.22 26 17.57 26 15.97 25.37 16.6 19.71 22.26 15 26.97 15 28.57 19.69 23.88 25.35 18.22"/><polygon class="cls-1" points="19.71 27.91 15 32.63 15 33.27 15.96 33.27 19.69 29.54 25.35 23.88 26 23.23 26 21.63 25.37 22.26 19.71 27.91"/><polygon class="cls-1" points="20.02 33.27 21.62 33.27 25.35 29.54 26 28.89 26 27.29 25.37 27.91 20.02 33.27"/><polygon class="cls-1" points="26 33.27 26 32.95 25.68 33.27 26 33.27"/><polygon class="cls-1" points="20.08 12.17 18.48 12.17 15 15.65 15 17.25 19.69 12.56 20.08 12.17"/><polygon class="cls-1" points="25.35 12.56 25.74 12.17 24.14 12.17 19.71 16.6 15 21.31 15 22.91 19.69 18.22 25.35 12.56"/><polygon class="cls-1" points="27 3.36 27 3.65 27.29 3.36 27 3.36"/><polygon class="cls-1" points="36.67 6.9 38 5.57 38 3.97 36.69 5.28 31.03 10.94 27 14.97 27 16.57 31.01 12.56 36.67 6.9"/><polygon class="cls-1" points="31.03 16.6 27 20.63 27 22.23 31.01 18.22 36.67 12.56 38 11.23 38 9.63 36.69 10.94 31.03 16.6"/><polygon class="cls-1" points="31.03 22.26 27 26.29 27 27.89 31.01 23.88 36.67 18.22 38 16.89 38 15.29 36.69 16.6 31.03 22.26"/><polygon class="cls-1" points="31.03 27.91 27 31.95 27 33.27 27.28 33.27 31.01 29.54 36.67 23.88 38 22.55 38 20.95 36.69 22.26 31.03 27.91"/><polygon class="cls-1" points="31.34 33.27 32.94 33.27 36.67 29.54 38 28.21 38 26.61 36.69 27.91 31.34 33.27"/><polygon class="cls-1" points="38 33.27 38 32.27 37 33.27 38 33.27"/><polygon class="cls-1" points="27.29 3.36 27 3.65 27 5.25 28.89 3.36 27.29 3.36"/><polygon class="cls-1" points="34.55 3.36 32.95 3.36 31.03 5.28 27 9.31 27 10.91 31.01 6.9 34.55 3.36"/></g></svg>