<svg xmlns="http://www.w3.org/2000/svg" viewBox="0 0 41 41"><defs><style>.cls-1{fill:#07d3b5;}</style></defs><title>icon-goverment</title><g id="圖層_1" data-name="圖層 1"><path class="cls-1" d="M38.9,15.33H2.1a1.35,1.35,0,0,1-.65-2.53L20.5,2.41l19,10.39a1.35,1.35,0,0,1-.65,2.53ZM20.5,3.55,1.93,13.67a.35.35,0,0,0-.17.4.34.34,0,0,0,.34.26H38.9a.34.34,0,0,0,.34-.26.35.35,0,0,0-.17-.4Z"/><path class="cls-1" d="M38,17.53H3v-3.2H38ZM4,16.53H37v-1.2H4Z"/><path class="cls-1" d="M38,35.86H3V32.2H38ZM4,34.86H37V33.2H4Z"/><path class="cls-1" d="M41,38.52H0V34.86H41Zm-40-1H40V35.86H1Z"/><path class="cls-1" d="M10.79,33.2H6.29V16.53h4.5Zm-3.5-1h2.5V17.53H7.29Z"/><path class="cls-1" d="M18.54,33.2H14V16.53h4.5Zm-3.5-1h2.5V17.53H15Z"/><path class="cls-1" d="M26.29,33.2h-4.5V16.53h4.5Zm-3.5-1h2.5V17.53h-2.5Z"/><path class="cls-1" d="M34,33.2h-4.5V16.53H34Zm-3.5-1H33V17.53h-2.5Z"/><polygon class="cls-1" points="34.91 11.4 34.13 12.18 31.98 14.33 34.67 14.33 36.65 12.35 34.91 11.4"/><path class="cls-1" d="M38.9,14.33a.34.34,0,0,0,.34-.26.35.35,0,0,0-.17-.4L38,13.08l-1.24,1.25Z"/><polygon class="cls-1" points="33.57 10.67 31.83 9.72 27.23 14.33 29.92 14.33 31.1 13.15 33.57 10.67"/><polygon class="cls-1" points="28.75 8.04 24.61 12.18 22.47 14.33 25.16 14.33 30.49 9 28.75 8.04"/><polygon class="cls-1" points="27.41 7.32 25.67 6.37 24.61 7.42 17.71 14.33 20.4 14.33 21.58 13.15 27.41 7.32"/><polygon class="cls-1" points="21.26 3.96 20.5 3.55 17.15 5.37 15.1 7.42 8.2 14.33 10.89 14.33 12.07 13.15 21.26 3.96"/><polygon class="cls-1" points="24.34 5.64 22.59 4.69 15.1 12.18 12.95 14.33 15.65 14.33 21.58 8.39 24.34 5.64"/><polygon class="cls-1" points="12.61 7.85 6.69 11.08 5.59 12.18 3.44 14.33 6.13 14.33 12.07 8.39 12.61 7.85"/></g></svg>