<svg xmlns="http://www.w3.org/2000/svg" xmlns:xlink="http://www.w3.org/1999/xlink" viewBox="0 0 41 41"><defs><style>.cls-1,.cls-2{fill:none;}.cls-2{stroke:#1393f5;}.cls-2,.cls-4{stroke-miterlimit:10;}.cls-3{fill:#30adf9;}.cls-4{stroke:#30adf9;fill:url(#新增圖樣色票_6);}</style><pattern id="新增圖樣色票_6" data-name="新增圖樣色票 6" width="5" height="5" patternTransform="translate(-6.25 -156.59) scale(0.97)" patternUnits="userSpaceOnUse" viewBox="0 0 5 5"><rect class="cls-1" width="5" height="5"/><line class="cls-2" x1="12.86" y1="2.14" x2="2.14" y2="12.86"/><line class="cls-2" x1="7.86" y1="2.14" x2="-2.86" y2="12.86"/><line class="cls-2" x1="2.86" y1="2.14" x2="-7.86" y2="12.86"/><line class="cls-2" x1="12.86" y1="-2.86" x2="2.14" y2="7.86"/><line class="cls-2" x1="7.86" y1="-2.86" x2="-2.86" y2="7.86"/><line class="cls-2" x1="2.86" y1="-2.86" x2="-7.86" y2="7.86"/><line class="cls-2" x1="12.86" y1="-7.86" x2="2.14" y2="2.86"/><line class="cls-2" x1="7.86" y1="-7.86" x2="-2.86" y2="2.86"/><line class="cls-2" x1="2.86" y1="-7.86" x2="-7.86" y2="2.86"/></pattern></defs><title>icon-house</title><g id="圖層_1" data-name="圖層 1"><path class="cls-3" d="M36.7,35.47H25.52V26.15a5,5,0,0,0-10,0v9.32H4.3v-24L20.5,4.69l16.2,6.82Zm-10.18-1H35.7V12.17L20.5,5.78,5.3,12.17v22.3h9.18V26.15a6,6,0,0,1,12,0Zm6.64-13.79h-6v-6h6Zm-5-1h4v-4h-4Zm-14.34,1h-6v-6h6Zm-5-1h4v-4h-4Z"/><path class="cls-3" d="M40.5,14.12,20.5,5.7.5,14.12V8.63L20.5.2l20,8.43Zm-20-9.51,19,8V9.29l-19-8-19,8v3.32Z"/><line class="cls-4" x1="4.8" y1="34.97" x2="36.2" y2="34.97"/><polygon class="cls-3" points="1 8.96 1 9.41 1.78 8.63 1 8.96"/><polygon class="cls-3" points="34.48 9.72 33.8 10.4 33.55 10.65 34.51 11.06 35.16 10.41 37.61 7.95 36.65 7.55 34.48 9.72"/><polygon class="cls-3" points="36.95 12.08 37.91 12.49 39.31 11.09 40 10.39 40 9.03 37.92 11.11 36.95 12.08"/><polygon class="cls-3" points="34.22 6.52 33.26 6.12 30.15 9.22 31.11 9.63 33.78 6.96 34.22 6.52"/><polygon class="cls-3" points="30.82 5.09 29.86 4.69 28.97 5.58 26.76 7.79 27.72 8.2 28.95 6.96 30.82 5.09"/><polygon class="cls-3" points="26.46 3.26 24.14 5.58 23.36 6.36 24.32 6.76 27.42 3.66 26.46 3.26"/><polygon class="cls-3" points="23.07 1.83 19.32 5.58 19.18 5.71 20.5 5.16 20.92 5.33 24.03 2.23 23.07 1.83"/><polygon class="cls-3" points="18.61 2.82 19.3 2.13 19.3 2.14 20.63 0.8 20.5 0.75 18.46 1.61 17.93 2.13 13.79 6.28 13.79 6.28 10.84 9.22 13.2 8.23 15.17 6.26 18.61 2.82"/><polygon class="cls-3" points="11.02 5.58 12.48 4.13 10.12 5.12 9.66 5.58 4.83 10.4 2.5 12.73 4.86 11.74 9.64 6.96 11.02 5.58"/><polygon class="cls-3" points="1.78 8.63 1 9.41 1 10.78 4.14 7.63 1.78 8.63"/><polygon class="cls-3" points="13.79 30.41 10.34 33.86 9.73 34.47 11.1 34.47 14.48 31.08 14.48 29.72 13.79 30.41"/><polygon class="cls-3" points="11.02 10.41 12.13 9.3 9.77 10.29 9.66 10.4 5.3 14.76 5.3 16.13 9.64 11.79 11.02 10.41"/><path class="cls-3" d="M11,29.72l3.46-3.46v-.11a5.75,5.75,0,0,1,.19-1.44l-.88.88h0L10.34,29l-.68.68L5.3,34.07v.4h1L9.64,31.1Z"/><path class="cls-3" d="M24.14,15.23l-4.83,4.83-.26.26a5.82,5.82,0,0,1,1.45-.18h.1l3.52-3.52L29,11.79l1.73-1.73-1-.4L29,10.4Z"/><polygon class="cls-3" points="10.87 25.04 15.17 20.74 18.77 17.14 19.3 16.62 24.12 11.79 27.28 8.63 26.32 8.23 24.14 10.4 19.32 15.23 18.09 16.46 13.79 20.76 13.79 20.76 10.19 24.36 9.66 24.89 5.3 29.24 5.3 30.61 9.64 26.27 10.87 25.04"/><polygon class="cls-3" points="33.78 11.79 34.08 11.49 33.11 11.09 29.5 14.7 30.87 14.7 33.78 11.79"/><path class="cls-3" d="M24.14,20.06l-.79.79a5.59,5.59,0,0,1,.82.55l3-3V17Z"/><path class="cls-3" d="M25.77,23.26a6.23,6.23,0,0,1,.42.95L29,21.44l.76-.76H28.34Z"/><polygon class="cls-3" points="34.48 14.55 33.8 15.23 33.16 15.87 33.16 17.23 33.78 16.62 35.16 15.23 35.7 14.7 35.7 13.33 34.48 14.55"/><polygon class="cls-3" points="33.8 29.71 29.04 34.47 30.41 34.47 33.78 31.1 35.16 29.71 35.7 29.18 35.7 27.81 34.48 29.03 33.8 29.71"/><polygon class="cls-3" points="33.8 24.89 28.97 29.71 26.52 32.16 26.52 33.53 28.95 31.1 33.78 26.27 35.01 25.04 35.7 24.35 35.7 22.98 34.32 24.36 33.8 24.89"/><polygon class="cls-3" points="33.8 20.06 28.97 24.89 26.52 27.34 26.52 28.7 28.95 26.27 33.78 21.44 34.57 20.65 35.7 19.52 35.7 18.16 33.88 19.97 33.8 20.06"/><polygon class="cls-3" points="5.3 19.59 5.3 20.95 7.84 18.42 7.84 17.05 5.3 19.59"/><polygon class="cls-3" points="15.17 11.09 18.61 7.64 19.3 6.96 20.47 5.79 18.11 6.78 17.93 6.96 13.79 11.11 10.34 14.55 10.2 14.7 11.56 14.7 15.17 11.09"/><polygon class="cls-3" points="5.3 24.42 5.3 25.78 9.64 21.44 10.4 20.68 9.04 20.68 5.3 24.42"/><polygon class="cls-3" points="22.92 6.8 19.32 10.4 17.93 11.79 13.83 15.89 13.83 17.26 15.17 15.91 15.17 15.91 18.61 12.47 19.3 11.79 23.88 7.2 22.92 6.8"/><path class="cls-3" d="M38.47,38.52H2.53V34.86H38.47Zm-35.07-1H37.6V35.86H3.4Z"/></g></svg>