<?xml version="1.0" encoding="utf-8"?>
<!-- Generator: Adobe Illustrator 22.0.1, SVG Export Plug-In . SVG Version: 6.00 Build 0)  -->
<svg version="1.1" xmlns="http://www.w3.org/2000/svg" xmlns:xlink="http://www.w3.org/1999/xlink" x="0px" y="0px"
	 viewBox="0 0 35.4 39.1" style="enable-background:new 0 0 35.4 39.1;" xml:space="preserve">
<style type="text/css">
	.st1{fill:#FFFFFF;}
	.st2{fill:#B4B4B5;}
</style>
<g>
  <polygon class="st1" points="15.5,39.1 15.5,31.3 7.2,20 12.4,20 17.7,27.5 23.3,20 28.3,20 20,31.3 20,39.1 			"/>
  <path class="st1" d="M10.1,12.1c0,0-1.4,7.7,6.9,8.5C17,20.7,18.2,13,10.1,12.1z"/>
  <path class="st1" d="M9.7,0c0,0,7.1,3.1,3.2,10.5C12.9,10.5,5.9,7.2,9.7,0z"/>
  <path class="st1" d="M0.6,5.1c0,0,0.6,7.7,8.8,6.5C9.4,11.7,8.7,3.9,0.6,5.1z"/>
  <path class="st1" d="M0,20.4c0,0,7.5,2.1,9.2-6C9.2,14.4,1.7,12.4,0,20.4z"/>
  <g>
    <path class="st1" d="M25.4,12.1c0,0,1.4,7.7-6.9,8.5C18.4,20.7,17.2,13,25.4,12.1z"/>
    <path class="st1" d="M25.7,0c0,0-7.1,3.1-3.2,10.5C22.5,10.5,29.6,7.2,25.7,0z"/>
    <g>
      <path class="st2" d="M34.8,5.1c0,0-0.6,7.7-8.8,6.5C26,11.7,26.7,3.9,34.8,5.1z"/>
    </g>
    <path class="st1" d="M35.4,20.4c0,0-7.5,2.1-9.2-6C26.3,14.4,33.8,12.4,35.4,20.4z"/>
    <path class="st1" d="M17.7,15.6c0,0,5.9-5.1,0-11C17.8,4.6,11.9,9.8,17.7,15.6z"/>
  </g>
</g>
</svg>
