<?xml version="1.0" encoding="utf-8"?>
<!-- Generator: Adobe Illustrator 22.0.1, SVG Export Plug-In . SVG Version: 6.00 Build 0)  -->
<svg version="1.1" xmlns="http://www.w3.org/2000/svg" xmlns:xlink="http://www.w3.org/1999/xlink" x="0px" y="0px"
	 viewBox="0 0 382.5 141.3" style="enable-background:new 0 0 382.5 141.3;" xml:space="preserve">
<style type="text/css">
	.st0{opacity:0.15;fill:url(#);}
	.st1{fill:#FFFFFF;}
	.st2{fill:#B4B4B5;}
	.st3{fill:#FFC215;}
	.st4{opacity:0.1;fill:#FFFFFF;}
	.st5{fill:url(#);stroke:#07D3B5;stroke-miterlimit:10;}
	.st6{fill:none;stroke:#07D3B5;stroke-miterlimit:10;}
	.st7{fill:#07D3B5;}
	.st8{fill:none;stroke:#FFFFFF;stroke-miterlimit:10;}
	.st9{opacity:0.3;fill:url(#);}
	.st10{fill:#F2F2F2;}
	.st11{opacity:0.3;fill:#FFFFFF;}
	.st12{opacity:0.7;}
	.st13{fill:none;stroke:#231815;stroke-width:2;stroke-linecap:round;stroke-linejoin:round;stroke-miterlimit:10;}
	.st14{fill:#4D4D4D;}
	.st15{fill:url(#);}
	.st16{fill:none;stroke:#FF8278;stroke-miterlimit:10;}
	.st17{fill:url(#);stroke:#FF8278;stroke-miterlimit:10;}
	.st18{fill:url(#);stroke:#30ADF9;stroke-miterlimit:10;}
	.st19{fill:#FF8278;}
	.st20{fill:#30ADF9;}
	.st21{fill:#C9C9CE;}
	.st22{opacity:0.25;}
	.st23{fill:#426BF2;}
	.st24{fill:#8E8E93;}
	.st25{opacity:0.9;fill:#F6F6F6;}
	.st26{opacity:0.3;}
	.st27{fill:none;}
	.st28{fill:#007AFF;}
	.st29{opacity:0;fill:#007AFF;}
	.st30{fill-rule:evenodd;clip-rule:evenodd;fill:#FFFFFF;}
	.st31{opacity:0.5;fill:none;}
</style>
<g id="圖層_2">
</g>
<g id="圖層_1">
	<g>
		<defs>
			<polygon id="SVGID_3_" points="899.3,842.7 178.2,821.3 178.2,368.5 899.3,347.2 			"/>
		</defs>
		<clipPath id="SVGID_2_">
			<use xlink:href="#SVGID_3_"  style="overflow:visible;"/>
		</clipPath>
		<g style="clip-path:url(#SVGID_2_);">
			
				<image style="overflow:visible;" width="2832" height="4240" xlink:href="1810A68E9BCAE7A3.jpg"  transform="matrix(0.2972 0 0 0.2972 93.9365 -366.9449)">
			</image>
		</g>
	</g>
	<g>
		<polygon class="st4" points="382.3,111.7 0,141.3 0.1,29.6 382.5,0 		"/>
		<g>
			<g>
				<path class="st1" d="M120.6,96.3l0-1.8l6.4,0c-0.3-0.8-0.6-1.7-1-2.4l1.8-0.5c0.4,1.1,0.8,2.1,1,2.9l6.6,0l0,1.8l-6.5,0l0,3.5
					l5.6,0l0,1.8l-5.6,0l0,4.2l7.1,0l0,1.8l-16.1,0l0-1.8l7.1,0l0-4.2l-5.6,0l0-1.8l5.6,0l0-3.5L120.6,96.3z"/>
				<path class="st1" d="M163.3,106.1L163,108l-3.7,0c-4.3,0-7-0.2-8.1-0.7c-0.8-0.4-1.5-0.9-2.2-1.8c-0.3,1-0.7,1.9-1.2,2.7
					l-1.3-1.2c0.9-1.6,1.4-3.3,1.5-5.3l1.6,0.2c0,0.6-0.1,1.2-0.2,1.7c0.3,0.5,0.7,0.9,1.1,1.2l0-3.7l-3.4,0l0-1.7l7.6,0l0,1.7
					l-2.5,0l0,1.5l2.3,0l0,1.7l-2.3,0l0,1.4c1,0.3,3.2,0.5,6.7,0.5C160.8,106.3,162.3,106.2,163.3,106.1z M154.1,92.2l0,6.6l-6.2,0
					l0-6.6L154.1,92.2z M152.3,96.2l-2.6,0l0,1.1l2.6,0L152.3,96.2z M152.3,94.8l0-1.1l-2.6,0l0,1.1L152.3,94.8z M157.6,94.7
					c0.1-0.3,0.2-0.6,0.2-0.9l-2.8,0l0-1.6l7.9,0l0,1.6l-3.3,0c-0.1,0.3-0.1,0.6-0.2,0.9l3,0l0,8.5l-1.5,0c0.8,0.5,1.5,1.1,2.2,1.6
					l-1.2,1.2c-0.6-0.6-1.4-1.3-2.6-2l0.7-0.7l-2.5,0l0.9,0.8c-0.8,0.8-1.7,1.4-2.8,2l-1-1.3c0.9-0.4,1.7-1,2.3-1.5l-1.5,0l0-8.5
					L157.6,94.7z M160.6,100.8l-3.5,0l0,1l3.5,0L160.6,100.8z M160.6,99.4l0-0.9l-3.5,0l0,0.9L160.6,99.4z M160.6,97.2l0-1l-3.5,0
					l0,1L160.6,97.2z"/>
				<path class="st1" d="M177.3,92.8l0-1.2l1.8,0l0,1.2l5.6,0l0-1.2l1.8,0l0,1.2l3,0l0,1.6l-3,0l0,5.5l3.2,0l0,1.6l-3.3,0
					c0.8,0.8,2,1.5,3.6,2l-0.8,1.6c-1.2-0.5-2.2-1.1-3-1.8l0,1.5l-3.4,0l0,1.2l6,0l0,1.7l-13.9,0l0-1.7l6.1,0l0-1.2l-3.5,0l0-1.4
					c-0.8,0.6-1.7,1.2-2.8,1.7l-1-1.6c1.5-0.5,2.7-1.2,3.5-2l-3.3,0l0-1.6l3.2,0l0-5.5l-3,0l0-1.6L177.3,92.8z M181.1,103.1l0-1.2
					l1.8,0l0,1.2l3.2,0c-0.6-0.5-1-1-1.4-1.6l-5.5,0c-0.4,0.6-0.9,1.1-1.4,1.6L181.1,103.1z M184.8,99.9l0-0.8l-5.6,0l0,0.8
					L184.8,99.9z M184.8,97.6l0-0.9l-5.6,0l0,0.9L184.8,97.6z M184.8,95.3l0-0.9l-5.6,0l0,0.9L184.8,95.3z"/>
				<path class="st1" d="M201.8,98.4l-1.1-1.6c3.1-1.3,5.6-3.1,7.5-5.2l1.5,0c1.7,2.1,4.2,3.8,7.5,5.2l-1.1,1.6
					c-0.8-0.4-1.6-0.7-2.4-1.2l0,0.9l-3.9,0l0,2l6.2,0l0,1.7l-6.2,0l0,4.2l1.5,0c0.5-1.1,1-2.3,1.4-3.5l1.7,0.6
					c-0.4,1.1-0.8,2-1.2,2.9l3.4,0l0,1.8l-15.6,0l0-1.8l3.5,0c-0.3-1-0.7-1.9-1.2-2.8l1.7-0.6c0.5,1,0.9,2.1,1.3,3.4l1.6,0l0-4.2
					l-6.2,0l0-1.7l6.2,0l0-2l-3.9,0l0-1C203.4,97.7,202.6,98.1,201.8,98.4z M209,93.5c-1.1,1.2-2.4,2.2-3.7,3.1l7.3,0
					C211.2,95.6,210,94.6,209,93.5z"/>
				<path class="st1" d="M228.4,108.2l-0.4-1.8c0.5,0.1,0.9,0.1,1.3,0.1c0.4,0,0.6-0.2,0.6-0.6l0-3.7c-0.6,0.3-1.3,0.5-1.9,0.7
					l-0.5-1.9c0.8-0.2,1.6-0.4,2.4-0.8l0-3.6l-2,0l0-1.8l2,0l0-3.1l1.9,0l0,3.1l1.9,0l0,1.8l-1.9,0l0,2.8c0.6-0.3,1.2-0.6,1.7-1
					l0,1.9c-0.6,0.3-1.2,0.6-1.7,0.9l0,5c0,1.2-0.6,1.9-1.8,1.9L228.4,108.2z M242.9,99.2l0,1.7c-0.5,1.6-1.3,2.9-2.5,4
					c1.1,0.7,2.4,1.3,4,1.8l-1,1.6c-1.7-0.7-3.2-1.4-4.4-2.3c-1.4,1-3,1.7-5,2.3l-1-1.6c1.8-0.5,3.2-1.2,4.5-2
					c-1.2-1.2-2.1-2.5-2.5-3.9l-1,0l0-1.8L242.9,99.2z M241.9,92.3l0,3.7c0,0.4,0.2,0.6,0.7,0.6l1.3,0l0,1.7l-1.8,0
					c-1.4,0-2.1-0.6-2.1-1.9l0-2.4l-2.9,0l0,0.7c0,1.7-0.8,3.1-2.5,4.1l-1.3-1.5c1.3-0.6,1.9-1.4,1.9-2.4l0-2.7L241.9,92.3z
					 M238.9,103.9c0.9-0.8,1.7-1.8,2.2-2.8l-4.3,0C237.2,102.1,237.9,103,238.9,103.9z"/>
				<path class="st1" d="M255.9,99.3l-1.2-1.3c1.3-0.8,2.5-1.8,3.6-2.9l1.4,1c-0.8,0.8-1.6,1.6-2.5,2.2l3,0l-0.8-1.2
					c2.8-0.4,4.4-1.3,4.9-2.8l1.7,0.3c-0.1,0.3-0.2,0.6-0.4,0.9c1.9,0.6,3.7,1.2,5.3,2l-1,1.5c-0.4-0.2-0.7-0.4-1.1-0.6l0,7.5l-3,0
					c1.7,0.3,3.4,0.7,5,1.1l-0.6,1.5c-1.9-0.7-3.9-1.2-6-1.5l0.6-1.1l-4.1,0l0.7,1c-1.3,0.7-3.2,1.2-5.7,1.6l-0.8-1.4
					c2.1-0.3,3.8-0.7,5-1.2l-2.8,0l0-7.5C256.8,98.7,256.4,99,255.9,99.3z M259.2,93.7l-1.2,1.2c-0.6-0.6-1.5-1.2-2.7-1.9l1.2-1.1
					C257.6,92.5,258.5,93.1,259.2,93.7z M267.1,103.6l-8.1,0l0,0.8l8.1,0L267.1,103.6z M267.1,102.5l0-0.7l-8.1,0l0,0.7L267.1,102.5
					z M267.1,100.5l0-0.8l-8.1,0l0,0.8L267.1,100.5z M260.7,96l-1.1-1.4c1.3-0.8,2.2-1.8,2.7-3l1.8,0.2c-0.1,0.3-0.2,0.6-0.3,0.8
					l6.6,0l0,1.3c-0.5,0.9-1,1.7-1.5,2.3l-1.3-1c0.3-0.3,0.6-0.6,0.8-1l-5.6,0C262.2,94.9,261.5,95.5,260.7,96z M264.8,96.7
					c-0.8,0.7-1.9,1.3-3.3,1.6l7.3,0C267.4,97.7,266.1,97.2,264.8,96.7z"/>
				<path class="st1" d="M297.4,92.4l0,1.8l-6.5,0l0,6.2l7.2,0l0,1.8l-7.2,0l0,6.2l-1.9,0l0-6.2l-7,0l0-1.8l7,0l0-6.2l-6.3,0l0-1.8
					L297.4,92.4z M287.2,99l-1.8,0.9c-0.6-1.5-1.2-2.8-1.9-4l1.7-0.8C286,96.2,286.6,97.5,287.2,99z M296.5,95.7
					c-0.5,1.4-1.2,2.7-2,4l-1.7-0.9c0.8-1.3,1.5-2.7,2-4L296.5,95.7z"/>
				<path class="st1" d="M309.3,97.4c1.3-0.2,3.1-2.1,5.6-5.7l1.9,0.7c-1.4,1.9-2.8,3.6-4.3,4.9c2.9-0.1,5.8-0.3,8.5-0.6
					c-0.5-0.8-1.1-1.5-1.7-2.3l1.7-0.8c1.4,1.8,2.8,3.8,4.1,6l-1.8,0.9c-0.4-0.7-0.8-1.4-1.2-2.1c-3.7,0.3-7.9,0.6-12.5,0.7
					L309.3,97.4z M323.2,108.5l-1.9,0l0-0.7l-8.6,0l0,0.7l-1.9,0l0-7.7l12.4,0L323.2,108.5z M321.3,106l0-3.4l-8.6,0l0,3.4
					L321.3,106z"/>
			</g>
		</g>
		<rect x="143.8" y="124.1" class="st1" width="179.4" height="2.2"/>
		<rect x="13.7" y="10" class="st1" width="98.4" height="2.2"/>
		<g>
			<path class="st1" d="M42.3,36.9h2.2c0.3,0,0.5,0.1,0.6,0.2c0.2,0.1,0.3,0.3,0.4,0.5l13,31.8c0.3,0.8,0.6,1.7,0.8,2.7
				c0.2-1,0.5-1.9,0.8-2.7l13-31.8c0.1-0.2,0.2-0.4,0.4-0.5c0.2-0.1,0.4-0.2,0.6-0.2h2.2L60.5,75.2h-2.5L42.3,36.9z"/>
			<path class="st1" d="M110.8,36.9v2.3H90.6v16.1h17.5v2.3H90.6v17.6h-2.8V36.9H110.8z"/>
			<path class="st1" d="M123.2,48.2v17.2c0,2.5,0.6,4.5,1.7,5.9c1.2,1.4,2.9,2.2,5.3,2.2c1.8,0,3.4-0.4,4.9-1.3
				c1.5-0.9,2.9-2.1,4.1-3.7V48.2h2.6v26.9h-1.4c-0.5,0-0.8-0.2-0.8-0.7l-0.2-4c-1.2,1.6-2.7,2.8-4.3,3.7c-1.6,0.9-3.5,1.4-5.5,1.4
				c-1.5,0-2.8-0.2-3.9-0.7c-1.1-0.5-2-1.1-2.8-2c-0.7-0.9-1.3-1.9-1.7-3.2c-0.4-1.2-0.6-2.7-0.6-4.2V48.2H123.2z"/>
			<path class="st1" d="M156,75.2V48.2h1.4c0.5,0,0.7,0.2,0.8,0.7l0.2,4.1c1.2-1.6,2.7-2.8,4.3-3.7c1.6-0.9,3.4-1.4,5.5-1.4
				c1.5,0,2.8,0.2,3.9,0.7c1.1,0.5,2.1,1.1,2.8,2c0.7,0.9,1.3,1.9,1.7,3.2c0.4,1.2,0.6,2.7,0.6,4.2v17.2h-2.6V57.9
				c0-2.5-0.6-4.5-1.7-5.9c-1.2-1.4-2.9-2.2-5.3-2.2c-1.8,0-3.4,0.5-4.9,1.4c-1.5,0.9-2.9,2.2-4.1,3.7v20.2H156z"/>
			<path class="st1" d="M209.7,75.2c-0.4,0-0.7-0.2-0.8-0.7l-0.3-4.2c-1.2,1.6-2.6,2.9-4.2,3.9c-1.6,1-3.4,1.4-5.4,1.4
				c-3.3,0-5.9-1.1-7.7-3.4c-1.9-2.3-2.8-5.7-2.8-10.3c0-2,0.3-3.8,0.8-5.5c0.5-1.7,1.3-3.2,2.3-4.4c1-1.3,2.2-2.2,3.7-3
				c1.5-0.7,3.1-1.1,5-1.1c1.8,0,3.4,0.3,4.7,1c1.3,0.7,2.5,1.7,3.5,3v-16h2.6v39.4H209.7z M199.9,73.4c1.8,0,3.4-0.5,4.9-1.4
				c1.4-0.9,2.7-2.2,3.9-3.8V54c-1-1.5-2.2-2.6-3.5-3.2c-1.3-0.6-2.7-0.9-4.3-0.9c-1.6,0-3,0.3-4.2,0.9c-1.2,0.6-2.2,1.4-3,2.4
				s-1.4,2.3-1.8,3.8c-0.4,1.5-0.6,3.1-0.6,4.9c0,4,0.7,6.9,2.2,8.8C195,72.5,197.1,73.4,199.9,73.4z"/>
		</g>
	</g>
</g>
<g id="iphone_interface">
</g>
</svg>
